<svg xmlns="http://www.w3.org/2000/svg" width="282.587" height="282.583" viewBox="0 0 282.587 282.583">
  <g id="Group_82" data-name="Group 82" transform="translate(-509.825 -1031.107)">
    <path id="Path_221" data-name="Path 221" d="M651.117,1313.69h0A141.293,141.293,0,0,1,509.825,1172.4h0a141.291,141.291,0,0,1,141.292-141.292h0a141.291,141.291,0,0,1,141.3,141.292h0A141.294,141.294,0,0,1,651.117,1313.69Z" fill="#ec4115"/>
    <g id="Group_43" data-name="Group 43" transform="translate(585.285 1102.639)">
      <path id="Path_232" data-name="Path 232" d="M552.808,1057.9c.547-4.1.378-8.387,5.114-8.6,5.422-.241,5.264,4.461,5.654,8.343h62.342c.823-3.721.287-8.67,5.851-8.351,4.737.272,4.524,4.547,5.1,8.6,2.465,0,4.9-.016,7.331,0,10.54.079,16.414,5.882,16.43,16.469q.071,46.568.02,93.135c0,1.5.008,3,0,4.5-.087,10.788-5.937,16.714-16.777,16.733q-45.794.071-91.584.02c-2.835,0-5.677.11-8.5-.044-8.485-.457-14.623-6.256-14.666-14.733q-.242-50.82.02-101.648c.047-8.453,6.351-14.142,14.859-14.422C546.812,1057.818,549.631,1057.9,552.808,1057.9Zm-11.119,46.44c-.106,1.771-.264,3.236-.268,4.7q-.029,26.529-.012,53.05c.02,9.89,4.465,14.3,14.406,14.316q39.014.047,78.032,0c9.93-.012,14.379-4.437,14.4-14.32q.053-26.529-.008-53.05c0-1.579-.24-3.154-.366-4.7Zm94.773-35.6c0,2.2.075,3.977-.016,5.736-.162,3.2-1.512,5.544-5.06,5.528s-4.839-2.335-4.941-5.591c-.055-1.827-.193-3.65-.334-6.13-5.65,5.607-5.819,11.8-1.181,15.82a9.873,9.873,0,0,0,14.19-1.288C642.672,1078.366,641.809,1072.618,636.462,1068.732Zm-83.9-.134c-4.229,3.567-5.185,7.512-3.351,11.9,1.772,4.253,5.307,6.323,9.938,5.985a9.7,9.7,0,0,0,8.831-8.162,9.348,9.348,0,0,0-4.181-9.756c-1.393,4.508,1.579,10.981-5.26,11.265C551.107,1080.13,554.143,1073.193,552.564,1068.6Z" transform="translate(-528.991 -1049.275)" fill="#fff"/>
      <path id="Path_233" data-name="Path 233" d="M546.531,1092.028c0-4.839-.13-9.686.031-14.521.224-6.575,3.776-10.639,10.268-11.524a34.341,34.341,0,0,1,8.969-.016c6.5.843,10.253,4.8,10.414,11.4q.366,14.759-.016,29.537c-.154,6.284-3.319,9.906-9.552,11.029a29.935,29.935,0,0,1-9.894.145c-6.981-1.118-9.981-4.941-10.217-12.032-.012-.335-.008-.669-.008-1Q546.527,1098.534,546.531,1092.028Zm20.1-.245c0-4.5.008-9,0-13.493,0-3.363-1.555-5.422-5.044-5.516-3.756-.1-5.41,1.984-5.41,5.614q.012,13.742,0,27.486c-.008,3.41,1.547,5.449,5.008,5.516,3.677.071,5.469-1.945,5.453-5.614C566.611,1101.111,566.627,1096.445,566.631,1091.784Z" transform="translate(-477.617 -1001.086)" fill="#fff"/>
      <path id="Path_234" data-name="Path 234" d="M537.866,1104.666h8.41c.26,1.067.185,2.339.78,2.9,1.528,1.445,3.5,3.736,5.016,3.544,1.918-.248,4.6-2.343,5.087-4.146.839-3.079.228-6.556.228-10.367-1.512.831-2.677,1.575-3.929,2.138-8.064,3.626-15.485-.772-15.954-9.564a107.72,107.72,0,0,1,.02-11.993c.366-6.354,3.8-10.276,10.075-11.158a33.852,33.852,0,0,1,9.93.075c6.028.964,9.489,4.9,9.619,10.992q.307,14.741-.008,29.494c-.138,6.484-3.374,10.162-9.776,11.391a27.607,27.607,0,0,1-8.418.338C541.04,1117.355,537.9,1113.469,537.866,1104.666Zm19.659-22.044h.027c0-1.658.063-3.319-.012-4.977-.146-3.237-2.008-4.831-5.13-4.827-3.079,0-5.107,1.5-5.229,4.748-.126,3.48-.161,6.977.024,10.45.173,3.248,2.457,5.119,5.331,4.421,1.9-.461,3.807-2.568,4.835-4.425C558.147,1086.617,557.525,1084.448,557.525,1082.621Z" transform="translate(-504.446 -1001.066)" fill="#fff"/>
    </g>
  </g>
</svg>
