<svg xmlns="http://www.w3.org/2000/svg" xmlns:xlink="http://www.w3.org/1999/xlink" width="71.773" height="71.772" viewBox="0 0 71.773 71.772">
  <defs>
    <linearGradient id="linear-gradient" y1="0.5" x2="1" y2="0.5" gradientUnits="objectBoundingBox">
      <stop offset="0" stop-color="#f8800e"/>
      <stop offset="1" stop-color="#f8800e"/>
    </linearGradient>
  </defs>
  <g id="Group_81" data-name="Group 81" transform="translate(-273.705 -1031.107)">
    <path id="Path_228" data-name="Path 228" d="M309.591,1102.879h0a35.886,35.886,0,0,1-35.886-35.886h0a35.886,35.886,0,0,1,35.886-35.886h0a35.886,35.886,0,0,1,35.887,35.886h0A35.887,35.887,0,0,1,309.591,1102.879Z" fill="url(#linear-gradient)"/>
    <g id="Group_40" data-name="Group 40">
      <path id="Path_229" data-name="Path 229" d="M323.906,1053.807c-.035.194-.078.386-.1.581-.2,1.532-.425,3.059-.77,4.565-.08.349-.173.694-.255,1.021l-5.77-5.761c.352-.088.7-.2,1.054-.26q1.837-.342,3.679-.656c.467-.079.939-.134,1.411-.175.453-.04.6.075.728.51a.247.247,0,0,0,.026.043Z" fill="#fff"/>
      <path id="Path_230" data-name="Path 230" d="M304.511,1078.706c-.275.157-.529.3-.78.446a.615.615,0,0,1-.911-.119l-4.861-4.864a.609.609,0,0,1-.111-.873c.148-.258.294-.517.455-.8-.166-.066-.315-.133-.469-.182-.041-.013-.1.023-.149.05q-1.855,1.123-3.709,2.252c-.118.071-.235.146-.355.214a.571.571,0,0,1-.676-.076c-.383-.374-.764-.752-1.136-1.137a.576.576,0,0,1,.02-.784q1.276-1.451,2.554-2.9c.8-.912,1.613-1.818,2.4-2.74a.958.958,0,0,1,.734-.341c1.135-.061,2.27-.133,3.4-.206.3-.019.6-.065.906-.087a.3.3,0,0,0,.239-.145c.669-.913,1.315-1.845,2.022-2.729.731-.913,1.5-1.8,2.294-2.659a26.636,26.636,0,0,1,3.416-3.1,22.763,22.763,0,0,1,6.009-3.345.414.414,0,0,1,.508.107q3.024,3.048,6.065,6.077a.279.279,0,0,1,.042.347c-.248.608-.479,1.223-.756,1.818a24.05,24.05,0,0,1-4.281,6.247c-.451.485-.916.96-1.395,1.418a42.168,42.168,0,0,1-5.307,4.265.531.531,0,0,0-.265.452c-.08,1.3-.173,2.6-.263,3.9a1.022,1.022,0,0,0-.017.181,1.048,1.048,0,0,1-.475.953c-1.746,1.523-3.479,3.062-5.217,4.6-.107.094-.209.194-.32.282a.574.574,0,0,1-.8-.078c-.363-.347-.715-.706-1.067-1.066a.549.549,0,0,1-.064-.715c.248-.4.51-.8.755-1.2.436-.723.862-1.451,1.294-2.176.121-.2.241-.41.372-.607a.3.3,0,0,0,.032-.335C304.6,1078.941,304.563,1078.832,304.511,1078.706Zm11.811-15.605a2.421,2.421,0,1,0-2.428,2.422A2.432,2.432,0,0,0,316.322,1063.1Z" fill="#fff"/>
      <path id="Path_231" data-name="Path 231" d="M296.58,1085.025a2.528,2.528,0,0,1,.216-1.58,2.445,2.445,0,0,1,.415-.443c.111-.106.246-.188.354-.3a.4.4,0,0,0,.12-.466.5.5,0,0,0-.454-.309.863.863,0,0,0-.617.241,1.482,1.482,0,0,0-.439.726,4.8,4.8,0,0,1-.247.684,2.369,2.369,0,0,1-1.812,1.326,4.564,4.564,0,0,1-.838.1,2.146,2.146,0,0,0-1.88,1.05l-.079.117a.572.572,0,0,1-.023-.086,5.6,5.6,0,0,1,.453-2.734,3.563,3.563,0,0,1,1.975-1.818,4.586,4.586,0,0,0,1.368-.8,2.5,2.5,0,0,0,.444-.528.493.493,0,0,0-.05-.6.582.582,0,0,0-.591-.216.8.8,0,0,0-.481.3,1.188,1.188,0,0,0-.125.175,2.432,2.432,0,0,1-2.048,1.3c-.333.031-.661.112-.954.163.161-.122.363-.263.549-.421a3.466,3.466,0,0,0,1.077-1.6,7.055,7.055,0,0,1,.86-1.767,3.759,3.759,0,0,1,2.552-1.632,4.093,4.093,0,0,1,4.819,3.55,4.143,4.143,0,0,1-2.658,4.362c-.128.051-.257.1-.386.149A2.669,2.669,0,0,0,296.58,1085.025Z" fill="#fff"/>
    </g>
  </g>
</svg>
