<svg xmlns="http://www.w3.org/2000/svg" width="71.773" height="71.772" viewBox="0 0 71.773 71.772">
  <g id="Group_82" data-name="Group 82" transform="translate(-37.59 -1031.107)">
    <path id="Path_223" data-name="Path 223" d="M73.477,1102.879h0a35.886,35.886,0,0,1-35.886-35.886h0a35.886,35.886,0,0,1,35.886-35.886h0a35.886,35.886,0,0,1,35.886,35.886h0A35.886,35.886,0,0,1,73.477,1102.879Z" fill="#ec4115"/>
    <g id="Group_37" data-name="Group 37">
      <g id="Group_35" data-name="Group 35">
        <path id="Path_224" data-name="Path 224" d="M86.422,1074.567c1.993,1.821,1.993,1.821,3.852,1.527-2.062,4.79-9.715,10.321-18.4,9.013a18.84,18.84,0,0,1-1.761-37.035c7.823-1.81,17.223,2.138,20.032,8.437l-4.868.388c-7.5-6.436-15.916-6.537-21.694-.066a14.512,14.512,0,0,0,.943,20.216C69.7,1081.936,79.95,1083.152,86.422,1074.567Z" fill="#fff"/>
        <path id="Path_225" data-name="Path 225" d="M91.892,1066.718c1.024,0,1.814-.026,2.6.007,1.047.044,1.437.542.71,1.415-1.719,2.065-3.463,4.115-5.3,6.079a1.609,1.609,0,0,1-1.58,0c-1.8-1.925-3.511-3.938-5.2-5.964-.725-.87-.435-1.438.71-1.538.4-.035.8,0,1.194-.009s.778-.034,1.373-.062c0-2.3.068-4.522-.025-6.741-.056-1.345.329-1.822,1.749-1.793,3.765.078,3.766.012,3.766,3.774Z" fill="#fff"/>
      </g>
      <g id="Group_36" data-name="Group 36">
        <path id="Path_226" data-name="Path 226" d="M73.05,1072.067v-4.038a9.715,9.715,0,0,1-4.333-2.092,4.007,4.007,0,0,1-1.2-2.884A4.06,4.06,0,0,1,69,1059.784a6.732,6.732,0,0,1,4.05-1.392v-.61h1.5v.6a7,7,0,0,1,4.061,1.3,3.58,3.58,0,0,1,1.47,2.918c0,.143,0,.268-.011.373h-3.53a2,2,0,0,0-.531-1.515,2.8,2.8,0,0,0-1.459-.7v3.563q3.54,1.041,4.671,2.353a4.531,4.531,0,0,1,1.143,3.009,4.32,4.32,0,0,1-1.448,3.223,6.431,6.431,0,0,1-4.366,1.448v1.708h-1.5V1074.3q-3.27-.339-4.536-1.639a3.85,3.85,0,0,1-1.278-2.693c0-.082.011-.229.034-.441h3.7A2.359,2.359,0,0,0,73.05,1072.067Zm0-8.2v-3.246q-2.456.113-2.455,1.538a1.175,1.175,0,0,0,.407.848A5.583,5.583,0,0,0,73.05,1063.867Zm1.5,4.592v3.755q2.386-.1,2.387-1.753Q76.941,1069.1,74.554,1068.459Z" fill="#fff"/>
      </g>
    </g>
  </g>
</svg>
